<svg id="visual" viewBox="0 0 400 600" width="400" height="600" xmlns="http://www.w3.org/2000/svg" xmlns:xlink="http://www.w3.org/1999/xlink" version="1.1"><rect x="0" y="0" width="400" height="600" fill="#ffffff"></rect><defs><linearGradient id="grad1_0" x1="0%" y1="0%" x2="100%" y2="100%"><stop offset="30%" stop-color="#ffffff" stop-opacity="1"></stop><stop offset="70%" stop-color="#ffffff" stop-opacity="1"></stop></linearGradient></defs><defs><linearGradient id="grad2_0" x1="0%" y1="0%" x2="100%" y2="100%"><stop offset="30%" stop-color="#ffffff" stop-opacity="1"></stop><stop offset="70%" stop-color="#ffffff" stop-opacity="1"></stop></linearGradient></defs><g transform="translate(400, 0)"><path d="M0 306.5C-36.5 294 -73.1 281.6 -111.4 268.8C-149.6 256.1 -189.6 243.1 -216.7 216.7C-243.8 190.3 -257.9 150.5 -270.7 112.1C-283.5 73.8 -295 36.9 -306.5 0L0 0Z" fill="#770cff"></path></g><g transform="translate(0, 600)"><path d="M0 -306.5C40.7 -302.6 81.3 -298.7 117.3 -283.1C153.2 -267.6 184.4 -240.4 210.7 -210.7C237 -181 258.3 -148.8 273.5 -113.3C288.6 -77.7 297.5 -38.9 306.5 0L0 0Z" fill="#770cff"></path></g></svg>