<svg id="visual" viewBox="0 0 400 600" width="400" height="600" xmlns="http://www.w3.org/2000/svg" xmlns:xlink="http://www.w3.org/1999/xlink" version="1.1"><g stroke-width="1" stroke-linejoin="bevel"><path d="M223.2 291L257.7 252.1L225.2 261.1Z" fill="#cebce8" stroke="#cebce8"></path><path d="M223.2 291L272.7 304L257.7 252.1Z" fill="#aa85e8" stroke="#aa85e8"></path><path d="M272.7 304L302.1 265.1L257.7 252.1Z" fill="#946ae8" stroke="#946ae8"></path><path d="M262.7 218.3L230.2 220.3L257.7 252.1Z" fill="#9f77e8" stroke="#9f77e8"></path><path d="M257.7 252.1L230.2 220.3L225.2 261.1Z" fill="#946ae8" stroke="#946ae8"></path><path d="M307.1 222.3L262.7 218.3L257.7 252.1Z" fill="#e6e6e6" stroke="#e6e6e6"></path><path d="M223.2 291L229.2 342.9L272.7 304Z" fill="#b492e8" stroke="#b492e8"></path><path d="M229.2 342.9L266.7 342.9L272.7 304Z" fill="#b492e8" stroke="#b492e8"></path><path d="M272.7 304L317.1 296L302.1 265.1Z" fill="#e6e6e6" stroke="#e6e6e6"></path><path d="M309.1 349.9L317.1 296L272.7 304Z" fill="#cebce8" stroke="#cebce8"></path><path d="M353.6 253.1L307.1 222.3L302.1 265.1Z" fill="#bda0e8" stroke="#bda0e8"></path><path d="M302.1 265.1L307.1 222.3L257.7 252.1Z" fill="#cebce8" stroke="#cebce8"></path><path d="M170.8 219.3L168.8 255.1L225.2 261.1Z" fill="#c6aee8" stroke="#c6aee8"></path><path d="M225.2 261.1L168.8 255.1L223.2 291Z" fill="#9f77e8" stroke="#9f77e8"></path><path d="M223.2 291L181.8 343.9L229.2 342.9Z" fill="#885ce8" stroke="#885ce8"></path><path d="M168.8 255.1L168.8 306L223.2 291Z" fill="#885ce8" stroke="#885ce8"></path><path d="M168.8 306L181.8 343.9L223.2 291Z" fill="#bda0e8" stroke="#bda0e8"></path><path d="M258.7 380.7L309.1 349.9L266.7 342.9Z" fill="#b492e8" stroke="#b492e8"></path><path d="M258.7 380.7L266.7 342.9L229.2 342.9Z" fill="#aa85e8" stroke="#aa85e8"></path><path d="M266.7 342.9L309.1 349.9L272.7 304Z" fill="#e6e6e6" stroke="#e6e6e6"></path><path d="M213.2 177.4L170.8 219.3L230.2 220.3Z" fill="#bda0e8" stroke="#bda0e8"></path><path d="M230.2 220.3L170.8 219.3L225.2 261.1Z" fill="#ded8e7" stroke="#ded8e7"></path><path d="M213.2 388.7L258.7 380.7L229.2 342.9Z" fill="#ded8e7" stroke="#ded8e7"></path><path d="M273.7 167.4L213.2 177.4L262.7 218.3Z" fill="#cebce8" stroke="#cebce8"></path><path d="M262.7 218.3L213.2 177.4L230.2 220.3Z" fill="#885ce8" stroke="#885ce8"></path><path d="M355.6 292L353.6 253.1L317.1 296Z" fill="#b492e8" stroke="#b492e8"></path><path d="M317.1 296L353.6 253.1L302.1 265.1Z" fill="#885ce8" stroke="#885ce8"></path><path d="M355.6 340.9L355.6 292L317.1 296Z" fill="#885ce8" stroke="#885ce8"></path><path d="M170.8 219.3L140.3 253.1L168.8 255.1Z" fill="#d7cae7" stroke="#d7cae7"></path><path d="M168.8 255.1L140.3 253.1L168.8 306Z" fill="#946ae8" stroke="#946ae8"></path><path d="M168.8 306L136.3 333.9L181.8 343.9Z" fill="#946ae8" stroke="#946ae8"></path><path d="M319.1 178.4L273.7 167.4L307.1 222.3Z" fill="#885ce8" stroke="#885ce8"></path><path d="M307.1 222.3L273.7 167.4L262.7 218.3Z" fill="#aa85e8" stroke="#aa85e8"></path><path d="M181.8 343.9L213.2 388.7L229.2 342.9Z" fill="#cebce8" stroke="#cebce8"></path><path d="M258.7 380.7L315.1 378.7L309.1 349.9Z" fill="#bda0e8" stroke="#bda0e8"></path><path d="M309.1 349.9L355.6 340.9L317.1 296Z" fill="#946ae8" stroke="#946ae8"></path><path d="M311.1 424.6L315.1 378.7L258.7 380.7Z" fill="#bda0e8" stroke="#bda0e8"></path><path d="M360.6 222.3L319.1 178.4L307.1 222.3Z" fill="#9f77e8" stroke="#9f77e8"></path><path d="M125.3 307L136.3 333.9L168.8 306Z" fill="#bda0e8" stroke="#bda0e8"></path><path d="M181.8 343.9L172.8 391.7L213.2 388.7Z" fill="#9f77e8" stroke="#9f77e8"></path><path d="M315.1 378.7L355.6 340.9L309.1 349.9Z" fill="#bda0e8" stroke="#bda0e8"></path><path d="M140.3 253.1L125.3 307L168.8 306Z" fill="#b492e8" stroke="#b492e8"></path><path d="M400 257.1L360.6 222.3L353.6 253.1Z" fill="#cebce8" stroke="#cebce8"></path><path d="M353.6 253.1L360.6 222.3L307.1 222.3Z" fill="#ded8e7" stroke="#ded8e7"></path><path d="M400 257.1L353.6 253.1L355.6 292Z" fill="#946ae8" stroke="#946ae8"></path><path d="M213.2 177.4L168.8 178.4L170.8 219.3Z" fill="#d7cae7" stroke="#d7cae7"></path><path d="M170.8 219.3L129.3 211.3L140.3 253.1Z" fill="#885ce8" stroke="#885ce8"></path><path d="M168.8 129.6L168.8 178.4L213.2 177.4Z" fill="#e6e6e6" stroke="#e6e6e6"></path><path d="M168.8 178.4L129.3 211.3L170.8 219.3Z" fill="#bda0e8" stroke="#bda0e8"></path><path d="M140.3 253.1L88.9 294L125.3 307Z" fill="#d7cae7" stroke="#d7cae7"></path><path d="M136.3 333.9L172.8 391.7L181.8 343.9Z" fill="#aa85e8" stroke="#aa85e8"></path><path d="M226.2 427.6L258.7 380.7L213.2 388.7Z" fill="#946ae8" stroke="#946ae8"></path><path d="M226.2 427.6L259.7 422.6L258.7 380.7Z" fill="#cebce8" stroke="#cebce8"></path><path d="M269.7 130.6L228.2 132.6L273.7 167.4Z" fill="#bda0e8" stroke="#bda0e8"></path><path d="M273.7 167.4L228.2 132.6L213.2 177.4Z" fill="#bda0e8" stroke="#bda0e8"></path><path d="M311.1 424.6L349.6 384.7L315.1 378.7Z" fill="#cebce8" stroke="#cebce8"></path><path d="M315.1 378.7L349.6 384.7L355.6 340.9Z" fill="#cebce8" stroke="#cebce8"></path><path d="M310.1 127.6L269.7 130.6L273.7 167.4Z" fill="#bda0e8" stroke="#bda0e8"></path><path d="M173.8 427.6L226.2 427.6L213.2 388.7Z" fill="#cebce8" stroke="#cebce8"></path><path d="M400 350.9L400 294L355.6 340.9Z" fill="#d7cae7" stroke="#d7cae7"></path><path d="M355.6 340.9L400 294L355.6 292Z" fill="#e6e6e6" stroke="#e6e6e6"></path><path d="M400 294L400 257.1L355.6 292Z" fill="#ded8e7" stroke="#ded8e7"></path><path d="M360.6 222.3L363.6 167.4L319.1 178.4Z" fill="#e6e6e6" stroke="#e6e6e6"></path><path d="M85.9 248.1L88.9 294L140.3 253.1Z" fill="#aa85e8" stroke="#aa85e8"></path><path d="M125.3 307L81.9 350.9L136.3 333.9Z" fill="#d7cae7" stroke="#d7cae7"></path><path d="M136.3 333.9L124.3 387.7L172.8 391.7Z" fill="#cebce8" stroke="#cebce8"></path><path d="M168.8 178.4L135.3 163.4L129.3 211.3Z" fill="#946ae8" stroke="#946ae8"></path><path d="M129.3 211.3L85.9 248.1L140.3 253.1Z" fill="#bda0e8" stroke="#bda0e8"></path><path d="M168.8 129.6L135.3 163.4L168.8 178.4Z" fill="#b492e8" stroke="#b492e8"></path><path d="M400 215.3L363.6 167.4L360.6 222.3Z" fill="#c6aee8" stroke="#c6aee8"></path><path d="M319.1 178.4L310.1 127.6L273.7 167.4Z" fill="#946ae8" stroke="#946ae8"></path><path d="M259.7 422.6L311.1 424.6L258.7 380.7Z" fill="#e6e6e6" stroke="#e6e6e6"></path><path d="M347.6 435.6L311.1 424.6L313.1 465.4Z" fill="#bda0e8" stroke="#bda0e8"></path><path d="M363.6 167.4L310.1 127.6L319.1 178.4Z" fill="#e6e6e6" stroke="#e6e6e6"></path><path d="M216.2 82.7L168.8 129.6L228.2 132.6Z" fill="#d7cae7" stroke="#d7cae7"></path><path d="M82.9 216.3L85.9 248.1L129.3 211.3Z" fill="#cebce8" stroke="#cebce8"></path><path d="M400 257.1L400 215.3L360.6 222.3Z" fill="#ded8e7" stroke="#ded8e7"></path><path d="M81.9 350.9L124.3 387.7L136.3 333.9Z" fill="#cebce8" stroke="#cebce8"></path><path d="M172.8 391.7L173.8 427.6L213.2 388.7Z" fill="#aa85e8" stroke="#aa85e8"></path><path d="M129.3 432.6L173.8 427.6L172.8 391.7Z" fill="#bda0e8" stroke="#bda0e8"></path><path d="M257.7 84.7L228.2 132.6L269.7 130.6Z" fill="#aa85e8" stroke="#aa85e8"></path><path d="M228.2 132.6L168.8 129.6L213.2 177.4Z" fill="#885ce8" stroke="#885ce8"></path><path d="M400 376.7L355.6 340.9L349.6 384.7Z" fill="#ded8e7" stroke="#ded8e7"></path><path d="M400 376.7L400 350.9L355.6 340.9Z" fill="#ded8e7" stroke="#ded8e7"></path><path d="M87.9 169.4L82.9 216.3L129.3 211.3Z" fill="#d7cae7" stroke="#d7cae7"></path><path d="M49.4 338.9L81.9 350.9L88.9 294Z" fill="#e6e6e6" stroke="#e6e6e6"></path><path d="M87.9 169.4L129.3 211.3L135.3 163.4Z" fill="#cebce8" stroke="#cebce8"></path><path d="M50.4 295L88.9 294L48.4 259.1Z" fill="#ded8e7" stroke="#ded8e7"></path><path d="M88.9 294L81.9 350.9L125.3 307Z" fill="#ded8e7" stroke="#ded8e7"></path><path d="M400 436.6L400 376.7L349.6 384.7Z" fill="#885ce8" stroke="#885ce8"></path><path d="M400 215.3L400 172.4L363.6 167.4Z" fill="#946ae8" stroke="#946ae8"></path><path d="M363.6 167.4L356.6 119.6L310.1 127.6Z" fill="#ded8e7" stroke="#ded8e7"></path><path d="M270.7 473.4L311.1 424.6L259.7 422.6Z" fill="#c6aee8" stroke="#c6aee8"></path><path d="M311.1 424.6L347.6 435.6L349.6 384.7Z" fill="#e6e6e6" stroke="#e6e6e6"></path><path d="M220.2 464.4L259.7 422.6L226.2 427.6Z" fill="#e6e6e6" stroke="#e6e6e6"></path><path d="M173.8 427.6L220.2 464.4L226.2 427.6Z" fill="#9f77e8" stroke="#9f77e8"></path><path d="M81.9 350.9L88.9 384.7L124.3 387.7Z" fill="#e6e6e6" stroke="#e6e6e6"></path><path d="M124.3 387.7L129.3 432.6L172.8 391.7Z" fill="#946ae8" stroke="#946ae8"></path><path d="M173.8 427.6L169.8 479.4L220.2 464.4Z" fill="#e6e6e6" stroke="#e6e6e6"></path><path d="M400 130.6L356.6 119.6L363.6 167.4Z" fill="#ded8e7" stroke="#ded8e7"></path><path d="M313.1 89.7L257.7 84.7L269.7 130.6Z" fill="#aa85e8" stroke="#aa85e8"></path><path d="M84.9 125.6L87.9 169.4L135.3 163.4Z" fill="#aa85e8" stroke="#aa85e8"></path><path d="M313.1 89.7L269.7 130.6L310.1 127.6Z" fill="#cebce8" stroke="#cebce8"></path><path d="M168.8 129.6L132.3 119.6L135.3 163.4Z" fill="#885ce8" stroke="#885ce8"></path><path d="M87.9 424.6L129.3 432.6L124.3 387.7Z" fill="#d7cae7" stroke="#d7cae7"></path><path d="M138.3 84.7L132.3 119.6L168.8 129.6Z" fill="#c6aee8" stroke="#c6aee8"></path><path d="M220.2 464.4L270.7 473.4L259.7 422.6Z" fill="#d7cae7" stroke="#d7cae7"></path><path d="M257.7 84.7L216.2 82.7L228.2 132.6Z" fill="#e6e6e6" stroke="#e6e6e6"></path><path d="M48.4 259.1L88.9 294L85.9 248.1Z" fill="#9f77e8" stroke="#9f77e8"></path><path d="M81.9 350.9L50.4 380.7L88.9 384.7Z" fill="#885ce8" stroke="#885ce8"></path><path d="M48.4 259.1L85.9 248.1L49.4 213.3Z" fill="#b492e8" stroke="#b492e8"></path><path d="M270.7 473.4L313.1 465.4L311.1 424.6Z" fill="#885ce8" stroke="#885ce8"></path><path d="M356.6 119.6L313.1 89.7L310.1 127.6Z" fill="#b492e8" stroke="#b492e8"></path><path d="M49.4 213.3L85.9 248.1L82.9 216.3Z" fill="#e6e6e6" stroke="#e6e6e6"></path><path d="M0 298L49.4 338.9L50.4 295Z" fill="#9f77e8" stroke="#9f77e8"></path><path d="M50.4 295L49.4 338.9L88.9 294Z" fill="#d7cae7" stroke="#d7cae7"></path><path d="M88.9 384.7L87.9 424.6L124.3 387.7Z" fill="#885ce8" stroke="#885ce8"></path><path d="M52.4 168.4L49.4 213.3L82.9 216.3Z" fill="#c6aee8" stroke="#c6aee8"></path><path d="M181.8 49.9L175.8 79.7L216.2 82.7Z" fill="#e6e6e6" stroke="#e6e6e6"></path><path d="M216.2 82.7L175.8 79.7L168.8 129.6Z" fill="#bda0e8" stroke="#bda0e8"></path><path d="M400 172.4L400 130.6L363.6 167.4Z" fill="#c6aee8" stroke="#c6aee8"></path><path d="M356.6 119.6L349.6 81.7L313.1 89.7Z" fill="#b492e8" stroke="#b492e8"></path><path d="M135.3 474.4L169.8 479.4L173.8 427.6Z" fill="#c6aee8" stroke="#c6aee8"></path><path d="M222.2 511.3L263.7 510.3L270.7 473.4Z" fill="#c6aee8" stroke="#c6aee8"></path><path d="M50.4 380.7L87.9 424.6L88.9 384.7Z" fill="#aa85e8" stroke="#aa85e8"></path><path d="M129.3 432.6L135.3 474.4L173.8 427.6Z" fill="#bda0e8" stroke="#bda0e8"></path><path d="M319.1 520.3L353.6 468.4L313.1 465.4Z" fill="#cebce8" stroke="#cebce8"></path><path d="M313.1 465.4L353.6 468.4L347.6 435.6Z" fill="#bda0e8" stroke="#bda0e8"></path><path d="M347.6 435.6L400 436.6L349.6 384.7Z" fill="#d7cae7" stroke="#d7cae7"></path><path d="M353.6 468.4L400 436.6L347.6 435.6Z" fill="#b492e8" stroke="#b492e8"></path><path d="M400 86.7L349.6 81.7L356.6 119.6Z" fill="#9f77e8" stroke="#9f77e8"></path><path d="M261.7 43.9L216.2 47.9L257.7 84.7Z" fill="#ded8e7" stroke="#ded8e7"></path><path d="M257.7 84.7L216.2 47.9L216.2 82.7Z" fill="#d7cae7" stroke="#d7cae7"></path><path d="M175.8 79.7L138.3 84.7L168.8 129.6Z" fill="#c6aee8" stroke="#c6aee8"></path><path d="M132.3 119.6L84.9 125.6L135.3 163.4Z" fill="#ded8e7" stroke="#ded8e7"></path><path d="M87.9 169.4L52.4 168.4L82.9 216.3Z" fill="#cebce8" stroke="#cebce8"></path><path d="M49.4 338.9L50.4 380.7L81.9 350.9Z" fill="#946ae8" stroke="#946ae8"></path><path d="M95.9 85.7L84.9 125.6L132.3 119.6Z" fill="#aa85e8" stroke="#aa85e8"></path><path d="M48.4 134.6L52.4 168.4L87.9 169.4Z" fill="#946ae8" stroke="#946ae8"></path><path d="M79.9 473.4L135.3 474.4L129.3 432.6Z" fill="#bda0e8" stroke="#bda0e8"></path><path d="M175.8 79.7L181.8 49.9L138.3 84.7Z" fill="#cebce8" stroke="#cebce8"></path><path d="M261.7 43.9L257.7 84.7L313.1 89.7Z" fill="#d7cae7" stroke="#d7cae7"></path><path d="M222.2 511.3L270.7 473.4L220.2 464.4Z" fill="#d7cae7" stroke="#d7cae7"></path><path d="M270.7 473.4L319.1 520.3L313.1 465.4Z" fill="#bda0e8" stroke="#bda0e8"></path><path d="M222.2 511.3L220.2 464.4L169.8 479.4Z" fill="#9f77e8" stroke="#9f77e8"></path><path d="M319.1 40.9L261.7 43.9L313.1 89.7Z" fill="#d7cae7" stroke="#d7cae7"></path><path d="M169.8 518.3L222.2 511.3L169.8 479.4Z" fill="#e6e6e6" stroke="#e6e6e6"></path><path d="M129.3 33.9L181.8 49.9L175.8 0Z" fill="#cebce8" stroke="#cebce8"></path><path d="M216.2 47.9L181.8 49.9L216.2 82.7Z" fill="#b492e8" stroke="#b492e8"></path><path d="M138.3 84.7L95.9 85.7L132.3 119.6Z" fill="#bda0e8" stroke="#bda0e8"></path><path d="M96.9 46.9L95.9 85.7L138.3 84.7Z" fill="#bda0e8" stroke="#bda0e8"></path><path d="M84.9 125.6L48.4 134.6L87.9 169.4Z" fill="#ded8e7" stroke="#ded8e7"></path><path d="M400 130.6L400 86.7L356.6 119.6Z" fill="#9f77e8" stroke="#9f77e8"></path><path d="M349.6 81.7L319.1 40.9L313.1 89.7Z" fill="#d7cae7" stroke="#d7cae7"></path><path d="M50.4 92.7L48.4 134.6L84.9 125.6Z" fill="#946ae8" stroke="#946ae8"></path><path d="M0 250.1L48.4 259.1L49.4 213.3Z" fill="#885ce8" stroke="#885ce8"></path><path d="M0 250.1L0 298L48.4 259.1Z" fill="#cebce8" stroke="#cebce8"></path><path d="M361.6 511.3L400 470.4L353.6 468.4Z" fill="#cebce8" stroke="#cebce8"></path><path d="M353.6 468.4L400 470.4L400 436.6Z" fill="#bda0e8" stroke="#bda0e8"></path><path d="M360.6 39.9L319.1 40.9L349.6 81.7Z" fill="#bda0e8" stroke="#bda0e8"></path><path d="M50.4 380.7L50.4 427.6L87.9 424.6Z" fill="#9f77e8" stroke="#9f77e8"></path><path d="M87.9 424.6L79.9 473.4L129.3 432.6Z" fill="#d7cae7" stroke="#d7cae7"></path><path d="M0 420.6L50.4 427.6L50.4 380.7Z" fill="#946ae8" stroke="#946ae8"></path><path d="M0 336.9L50.4 380.7L49.4 338.9Z" fill="#946ae8" stroke="#946ae8"></path><path d="M0 250.1L49.4 213.3L0 212.3Z" fill="#cebce8" stroke="#cebce8"></path><path d="M48.4 259.1L0 298L50.4 295Z" fill="#bda0e8" stroke="#bda0e8"></path><path d="M0 212.3L49.4 213.3L0 167.4Z" fill="#cebce8" stroke="#cebce8"></path><path d="M133.3 522.3L169.8 518.3L135.3 474.4Z" fill="#c6aee8" stroke="#c6aee8"></path><path d="M135.3 474.4L169.8 518.3L169.8 479.4Z" fill="#d7cae7" stroke="#d7cae7"></path><path d="M266.7 548.1L319.1 520.3L263.7 510.3Z" fill="#ded8e7" stroke="#ded8e7"></path><path d="M266.7 548.1L263.7 510.3L222.2 511.3Z" fill="#cebce8" stroke="#cebce8"></path><path d="M263.7 510.3L319.1 520.3L270.7 473.4Z" fill="#d7cae7" stroke="#d7cae7"></path><path d="M0 298L0 336.9L49.4 338.9Z" fill="#ded8e7" stroke="#ded8e7"></path><path d="M0 167.4L49.4 213.3L52.4 168.4Z" fill="#b492e8" stroke="#b492e8"></path><path d="M50.4 427.6L79.9 473.4L87.9 424.6Z" fill="#b492e8" stroke="#b492e8"></path><path d="M319.1 520.3L361.6 511.3L353.6 468.4Z" fill="#ded8e7" stroke="#ded8e7"></path><path d="M400 86.7L360.6 39.9L349.6 81.7Z" fill="#bda0e8" stroke="#bda0e8"></path><path d="M0 336.9L0 385.7L50.4 380.7Z" fill="#d7cae7" stroke="#d7cae7"></path><path d="M50.4 427.6L44.4 469.4L79.9 473.4Z" fill="#9f77e8" stroke="#9f77e8"></path><path d="M90.9 515.3L133.3 522.3L135.3 474.4Z" fill="#bda0e8" stroke="#bda0e8"></path><path d="M228.2 556.1L266.7 548.1L222.2 511.3Z" fill="#bda0e8" stroke="#bda0e8"></path><path d="M95.9 85.7L50.4 92.7L84.9 125.6Z" fill="#aa85e8" stroke="#aa85e8"></path><path d="M48.4 134.6L0 167.4L52.4 168.4Z" fill="#ded8e7" stroke="#ded8e7"></path><path d="M96.9 46.9L50.4 92.7L95.9 85.7Z" fill="#d7cae7" stroke="#d7cae7"></path><path d="M0 135.6L0 167.4L48.4 134.6Z" fill="#d7cae7" stroke="#d7cae7"></path><path d="M175.8 0L181.8 49.9L216.2 47.9Z" fill="#b492e8" stroke="#b492e8"></path><path d="M181.8 49.9L129.3 33.9L138.3 84.7Z" fill="#b492e8" stroke="#b492e8"></path><path d="M228.2 0L216.2 47.9L261.7 43.9Z" fill="#bda0e8" stroke="#bda0e8"></path><path d="M260.7 0L261.7 43.9L303.1 0Z" fill="#cebce8" stroke="#cebce8"></path><path d="M228.2 556.1L222.2 511.3L169.8 518.3Z" fill="#b492e8" stroke="#b492e8"></path><path d="M400 558.1L400 516.3L361.6 511.3Z" fill="#aa85e8" stroke="#aa85e8"></path><path d="M129.3 33.9L96.9 46.9L138.3 84.7Z" fill="#ded8e7" stroke="#ded8e7"></path><path d="M303.1 0L261.7 43.9L319.1 40.9Z" fill="#cebce8" stroke="#cebce8"></path><path d="M260.7 0L228.2 0L261.7 43.9Z" fill="#aa85e8" stroke="#aa85e8"></path><path d="M0 464.4L44.4 469.4L50.4 427.6Z" fill="#ded8e7" stroke="#ded8e7"></path><path d="M79.9 473.4L90.9 515.3L135.3 474.4Z" fill="#e6e6e6" stroke="#e6e6e6"></path><path d="M169.8 560.1L228.2 556.1L169.8 518.3Z" fill="#d7cae7" stroke="#d7cae7"></path><path d="M400 86.7L400 41.9L360.6 39.9Z" fill="#bda0e8" stroke="#bda0e8"></path><path d="M359.6 0L303.1 0L319.1 40.9Z" fill="#e6e6e6" stroke="#e6e6e6"></path><path d="M359.6 0L319.1 40.9L360.6 39.9Z" fill="#cebce8" stroke="#cebce8"></path><path d="M359.6 563.1L361.6 511.3L319.1 520.3Z" fill="#e6e6e6" stroke="#e6e6e6"></path><path d="M361.6 511.3L400 516.3L400 470.4Z" fill="#e6e6e6" stroke="#e6e6e6"></path><path d="M51.4 515.3L90.9 515.3L79.9 473.4Z" fill="#b492e8" stroke="#b492e8"></path><path d="M133.3 522.3L169.8 560.1L169.8 518.3Z" fill="#c6aee8" stroke="#c6aee8"></path><path d="M0 79.7L0 135.6L50.4 92.7Z" fill="#885ce8" stroke="#885ce8"></path><path d="M50.4 92.7L0 135.6L48.4 134.6Z" fill="#885ce8" stroke="#885ce8"></path><path d="M0 385.7L0 420.6L50.4 380.7Z" fill="#946ae8" stroke="#946ae8"></path><path d="M228.2 0L175.8 0L216.2 47.9Z" fill="#b492e8" stroke="#b492e8"></path><path d="M129.3 33.9L87.9 0L96.9 46.9Z" fill="#b492e8" stroke="#b492e8"></path><path d="M261.7 600L311.1 561.1L266.7 548.1Z" fill="#946ae8" stroke="#946ae8"></path><path d="M266.7 548.1L311.1 561.1L319.1 520.3Z" fill="#946ae8" stroke="#946ae8"></path><path d="M140.3 565.1L169.8 560.1L133.3 522.3Z" fill="#b492e8" stroke="#b492e8"></path><path d="M228.2 556.1L261.7 600L266.7 548.1Z" fill="#bda0e8" stroke="#bda0e8"></path><path d="M175.8 0L139.3 0L129.3 33.9Z" fill="#ded8e7" stroke="#ded8e7"></path><path d="M96.9 46.9L46.4 38.9L50.4 92.7Z" fill="#cebce8" stroke="#cebce8"></path><path d="M400 0L359.6 0L360.6 39.9Z" fill="#c6aee8" stroke="#c6aee8"></path><path d="M87.9 563.1L140.3 565.1L133.3 522.3Z" fill="#cebce8" stroke="#cebce8"></path><path d="M224.2 600L261.7 600L228.2 556.1Z" fill="#946ae8" stroke="#946ae8"></path><path d="M87.9 563.1L133.3 522.3L90.9 515.3Z" fill="#e6e6e6" stroke="#e6e6e6"></path><path d="M311.1 561.1L359.6 563.1L319.1 520.3Z" fill="#d7cae7" stroke="#d7cae7"></path><path d="M350.6 600L359.6 563.1L311.1 561.1Z" fill="#ded8e7" stroke="#ded8e7"></path><path d="M0 519.3L51.4 515.3L44.4 469.4Z" fill="#c6aee8" stroke="#c6aee8"></path><path d="M44.4 469.4L51.4 515.3L79.9 473.4Z" fill="#aa85e8" stroke="#aa85e8"></path><path d="M0 420.6L0 464.4L50.4 427.6Z" fill="#885ce8" stroke="#885ce8"></path><path d="M87.9 0L46.4 38.9L96.9 46.9Z" fill="#e6e6e6" stroke="#e6e6e6"></path><path d="M46.4 38.9L0 79.7L50.4 92.7Z" fill="#aa85e8" stroke="#aa85e8"></path><path d="M400 41.9L400 0L360.6 39.9Z" fill="#9f77e8" stroke="#9f77e8"></path><path d="M359.6 563.1L400 558.1L361.6 511.3Z" fill="#bda0e8" stroke="#bda0e8"></path><path d="M139.3 0L87.9 0L129.3 33.9Z" fill="#aa85e8" stroke="#aa85e8"></path><path d="M46.4 38.9L0 41.9L0 79.7Z" fill="#946ae8" stroke="#946ae8"></path><path d="M224.2 600L228.2 556.1L181.8 600Z" fill="#bda0e8" stroke="#bda0e8"></path><path d="M359.6 563.1L400 600L400 558.1Z" fill="#aa85e8" stroke="#aa85e8"></path><path d="M181.8 600L228.2 556.1L169.8 560.1Z" fill="#ded8e7" stroke="#ded8e7"></path><path d="M45.4 549.1L87.9 563.1L90.9 515.3Z" fill="#b492e8" stroke="#b492e8"></path><path d="M139.3 600L181.8 600L169.8 560.1Z" fill="#9f77e8" stroke="#9f77e8"></path><path d="M45.4 549.1L90.9 515.3L51.4 515.3Z" fill="#885ce8" stroke="#885ce8"></path><path d="M261.7 600L308.1 600L311.1 561.1Z" fill="#ded8e7" stroke="#ded8e7"></path><path d="M139.3 600L169.8 560.1L140.3 565.1Z" fill="#b492e8" stroke="#b492e8"></path><path d="M0 519.3L45.4 549.1L51.4 515.3Z" fill="#ded8e7" stroke="#ded8e7"></path><path d="M90.9 600L139.3 600L140.3 565.1Z" fill="#aa85e8" stroke="#aa85e8"></path><path d="M308.1 600L350.6 600L311.1 561.1Z" fill="#aa85e8" stroke="#aa85e8"></path><path d="M90.9 600L140.3 565.1L87.9 563.1Z" fill="#e6e6e6" stroke="#e6e6e6"></path><path d="M41.4 0L0 41.9L46.4 38.9Z" fill="#cebce8" stroke="#cebce8"></path><path d="M87.9 0L41.4 0L46.4 38.9Z" fill="#e6e6e6" stroke="#e6e6e6"></path><path d="M0 464.4L0 519.3L44.4 469.4Z" fill="#d7cae7" stroke="#d7cae7"></path><path d="M350.6 600L400 600L359.6 563.1Z" fill="#b492e8" stroke="#b492e8"></path><path d="M51.4 600L90.9 600L87.9 563.1Z" fill="#c6aee8" stroke="#c6aee8"></path><path d="M51.4 600L87.9 563.1L45.4 549.1Z" fill="#d7cae7" stroke="#d7cae7"></path><path d="M0 519.3L0 551.1L45.4 549.1Z" fill="#ded8e7" stroke="#ded8e7"></path><path d="M41.4 0L0 0L0 41.9Z" fill="#d7cae7" stroke="#d7cae7"></path><path d="M0 600L51.4 600L45.4 549.1Z" fill="#aa85e8" stroke="#aa85e8"></path><path d="M0 551.1L0 600L45.4 549.1Z" fill="#c6aee8" stroke="#c6aee8"></path></g></svg>