<svg width="473" height="407" viewBox="0 0 473 407" fill="none" xmlns="http://www.w3.org/2000/svg">
<path d="M104.539 182.213L104.539 182.213C101.473 199.344 101.114 219.672 103.551 230.813C104.237 233.946 104.636 236.139 104.653 238.376C104.67 240.619 104.303 242.783 103.662 245.857C100.644 260.351 95.8514 271.743 87.3626 284.647C82.4096 292.176 76.1536 298.533 69.5361 303.047C62.9445 307.542 55.8355 310.313 49.1964 310.402C45.2341 310.455 41.2847 309.877 38.7832 308.582M104.539 182.213L39.932 306.362M104.539 182.213C110.587 148.409 120.414 125.516 142.129 94.7867C146.288 88.8999 156.13 78.0772 166.885 67.2041C177.618 56.3532 189.046 45.6693 196.291 40.0483C218.289 22.9838 246.82 9.29988 270.774 4.26149C286.69 0.914096 303.063 2.32023 320.493 8.62974L321.343 6.28193L320.493 8.62978C333.433 13.3132 339.936 14.9487 350.665 16.1671L350.947 13.6852L350.665 16.1671C357.203 16.9094 361.964 18.4377 365.02 20.4604C367.979 22.4185 369.259 24.7588 369.259 27.458C369.259 31.0399 367.87 33.9372 362.741 38.6658C357.48 43.5145 353.42 45.6278 343.593 48.3453L104.539 182.213ZM38.7832 308.582L39.932 306.362M38.7832 308.582C38.7835 308.583 38.7837 308.583 38.7839 308.583L39.932 306.362M38.7832 308.582C37.363 307.848 35.3333 306.428 33.1362 304.754C30.8942 303.045 28.3411 300.966 25.8293 298.818C20.8758 294.584 15.843 289.883 13.7482 287.202L13.748 287.202C11.8438 284.765 9.86558 282.356 9.33688 281.799M39.932 306.362C35.104 303.866 19.556 290.574 15.718 285.663C13.831 283.248 11.774 280.734 11.147 280.075M9.33688 281.799L11.147 280.075M9.33688 281.799C9.33652 281.799 9.33616 281.799 9.33579 281.798L11.147 280.075M9.33688 281.799L11.147 280.075M337.033 55.6806L337.031 55.6819L337.033 55.6806ZM337.033 55.6806C336.923 55.7849 336.829 55.8504 336.786 55.8776M337.033 55.6806L336.786 55.8776M336.786 55.8776C336.768 55.8877 336.761 55.8925 336.762 55.892C336.764 55.8914 336.772 55.8866 336.786 55.8776ZM393.002 300.807C397.704 299.555 401.415 297.961 405.078 295.161C408.677 292.408 412.12 288.573 416.419 283.039L416.419 283.039C427.525 268.74 430.046 264.788 434.379 254.577C437.313 247.663 438.259 244.074 438.259 238.922C438.259 230.209 436.496 218.026 433.992 209.395C433.179 206.593 432.758 204.162 432.658 202.363C432.982 202.844 433.332 203.395 433.707 204.012C435.273 206.59 437.131 210.116 439.022 214.07C442.811 221.997 446.612 231.389 448.397 237.931C450.018 243.871 450.99 253.595 451.177 263.953C451.364 274.279 450.766 284.971 449.358 292.792C445.769 312.741 439.606 328.136 428.793 344.216C410.258 371.783 382.695 389.389 349.461 394.863C341.653 396.149 335.651 396.43 322.754 396.058C316.448 395.876 312.087 395.829 309.162 395.952C307.706 396.014 306.515 396.12 305.579 396.298C304.801 396.446 303.77 396.712 302.976 397.397C302.945 397.413 302.895 397.437 302.823 397.468C302.591 397.57 302.24 397.7 301.754 397.852C300.785 398.154 299.447 398.493 297.793 398.855C294.496 399.576 290.112 400.349 285.277 401.075C275.594 402.529 264.282 403.768 256.513 404.027C238.599 404.625 226.076 403.2 213.743 399.26L212.982 401.641L335.309 53.87L333.586 52.0582C333.586 52.0586 333.586 52.059 333.585 52.0594C333.215 52.4117 332.516 53.3283 332.851 54.6034C333.116 55.6136 333.871 56.0862 334.069 56.2056C334.57 56.5071 335.132 56.6302 335.405 56.6869C336.109 56.8328 337.096 56.9375 338.233 57.0178C340.559 57.1821 343.963 57.273 348.09 57.273C351.884 57.273 354.713 57.2985 356.806 57.4146C358.365 57.5011 359.34 57.633 359.93 57.7696C359.927 57.7773 359.924 57.7851 359.921 57.7929C359.758 58.1994 359.515 58.7026 359.18 59.3507C357.799 62.0223 354.744 64.5989 349.717 66.7452C344.732 68.8742 338.077 70.4606 329.952 71.3292C321.37 72.2463 314.977 73.5117 309.632 75.7598C304.223 78.0345 300.032 81.2524 295.741 85.8392C293.036 88.7314 291.097 91.1742 289.239 94.4969C287.414 97.761 285.701 101.817 283.367 107.874C280.692 114.819 276.037 123.749 271.623 130.389C268.286 135.409 265.152 143.537 262.866 151.937C260.573 160.365 259.043 169.398 259.083 176.331C259.179 193.108 265.487 213.391 276.642 233.486L278.828 232.273L276.642 233.487C284.774 248.133 289.165 253.935 300.955 265.608C313.925 278.449 332.673 290.716 348.6 296.749C355.347 299.304 363.712 301.025 371.683 301.765C379.615 302.502 387.426 302.292 393.002 300.807ZM393.002 300.807L392.359 298.391L393.002 300.807C393.002 300.807 393.002 300.807 393.002 300.807ZM427.832 142.476C430.2 136.759 435.776 130.015 442.519 123.812C444.735 121.774 447.104 119.769 449.568 117.852C434.594 125.103 417.693 135.023 407.886 142.545C404.626 145.046 398.238 150.642 393.739 154.951L385.491 162.851L383.447 164.81L381.756 162.539L379.608 159.653L379.608 159.652C377.979 157.462 372.19 151.491 365.621 145.101C359.109 138.767 352.103 132.283 348.187 129.117C346.962 128.127 345.415 126.931 343.709 125.649C346.967 129.372 349.668 132.939 352.028 136.72C356.209 143.423 359.247 150.687 362.463 160.494C366.804 173.723 368.31 182.451 368.413 195.134C368.501 205.989 366.113 217.501 362.118 227.568C358.14 237.597 352.466 246.444 345.792 251.747C340.909 255.628 332.046 259.037 323.559 260.525C320.833 261.004 318.837 261.265 316.748 261.084C315.596 260.984 314.462 260.753 313.202 260.404C313.343 260.52 313.486 260.636 313.63 260.753C318.345 264.592 324.118 268.966 328.066 271.544C353.33 288.037 375.84 290.252 392.414 279.284C396.183 276.79 399.514 271.044 402.088 260.233C404.631 249.547 406.308 234.486 407.268 214.155C408.771 182.344 413.042 164.682 423.292 150.334L425.326 151.787L423.292 150.334C424.99 147.957 427.049 144.366 427.832 142.476ZM427.832 142.476C427.832 142.476 427.832 142.476 427.832 142.476L430.142 143.433L427.832 142.476ZM3.87921 247.597C3.76456 246.937 3.64972 246.34 3.53731 245.817C3.14437 245.964 2.67407 246.024 2.15513 245.903C1.99529 245.866 1.8512 245.816 1.72246 245.758C1.58921 246.294 1.46069 246.908 1.33802 247.586C1.6145 249.105 1.89995 251.058 2.14893 253.252C2.31368 254.704 2.5145 256.206 2.74345 257.726C2.81902 256.493 2.91067 255.286 3.01625 254.13C3.04681 253.796 3.07845 253.466 3.11112 253.143C3.32898 250.984 3.59209 249.08 3.87921 247.597ZM336.299 51.7617C336.298 51.7612 336.308 51.7636 336.326 51.7696C336.308 51.7649 336.299 51.7621 336.299 51.7617Z" stroke="white" stroke-width="5"/>
</svg>
