<svg id="visual" viewBox="0 0 600 400" width="600" height="400" xmlns="http://www.w3.org/2000/svg" xmlns:xlink="http://www.w3.org/1999/xlink" version="1.1"><g transform="translate(298.68422347819694 217.20556152799298)"><path d="M118.2 -139.5C150.7 -113.6 172.8 -74 174.5 -35.1C176.2 3.7 157.4 41.9 132.2 67.8C107.1 93.7 75.6 107.5 43.4 119C11.3 130.6 -21.5 140 -57.2 136.1C-92.8 132.3 -131.3 115.1 -152.6 84.9C-173.9 54.6 -178 11.3 -163.1 -21C-148.2 -53.3 -114.3 -74.6 -83.9 -100.9C-53.6 -127.2 -26.8 -158.6 8 -168.2C42.9 -177.7 85.7 -165.5 118.2 -139.5" fill="#9ba3eb"></path></g></svg>