<svg id="visual" viewBox="0 0 300 300" width="300" height="300" xmlns="http://www.w3.org/2000/svg" xmlns:xlink="http://www.w3.org/1999/xlink" version="1.1"><path d="M0 22L75 25L150 31L225 22L300 25L300 0L225 0L150 0L75 0L0 0Z" fill="#dedede"></path><path d="M0 76L75 94L150 103L225 85L300 82L300 23L225 20L150 29L75 23L0 20Z" fill="#d3d3d3"></path><path d="M0 97L75 115L150 124L225 115L300 109L300 80L225 83L150 101L75 92L0 74Z" fill="#c7c7c7"></path><path d="M0 151L75 169L150 163L225 160L300 145L300 107L225 113L150 122L75 113L0 95Z" fill="#bebebe"></path><path d="M0 223L75 223L150 235L225 217L300 226L300 143L225 158L150 161L75 167L0 149Z" fill="#bebebe"></path><path d="M0 238L75 247L150 256L225 238L300 241L300 224L225 215L150 233L75 221L0 221Z" fill="#c7c7c7"></path><path d="M0 280L75 277L150 280L225 274L300 277L300 239L225 236L150 254L75 245L0 236Z" fill="#d3d3d3"></path><path d="M0 301L75 301L150 301L225 301L300 301L300 275L225 272L150 278L75 275L0 278Z" fill="#dedede"></path></svg>