<svg id="visual" viewBox="0 0 320 384" width="320" height="384" xmlns="http://www.w3.org/2000/svg" xmlns:xlink="http://www.w3.org/1999/xlink" version="1.1"><path d="M0 66L80 74L160 36L240 43L320 43L320 0L240 0L160 0L80 0L0 0Z" fill="#efefef"></path><path d="M0 128L80 151L160 128L240 124L320 116L320 41L240 41L160 34L80 72L0 64Z" fill="#e6e6e6"></path><path d="M0 158L80 178L160 162L240 151L320 135L320 114L240 122L160 126L80 149L0 126Z" fill="#dddddd"></path><path d="M0 274L80 270L160 243L240 266L320 254L320 133L240 149L160 160L80 176L0 156Z" fill="#d6d6d6"></path><path d="M0 297L80 301L160 270L240 297L320 281L320 252L240 264L160 241L80 268L0 272Z" fill="#d6d6d6"></path><path d="M0 331L80 331L160 316L240 335L320 312L320 279L240 295L160 268L80 299L0 295Z" fill="#dddddd"></path><path d="M0 358L80 358L160 354L240 362L320 350L320 310L240 333L160 314L80 329L0 329Z" fill="#e6e6e6"></path><path d="M0 385L80 385L160 385L240 385L320 385L320 348L240 360L160 352L80 356L0 356Z" fill="#efefef"></path></svg>