<svg id="visual" viewBox="0 0 1920 300" width="1920" height="300" xmlns="http://www.w3.org/2000/svg" xmlns:xlink="http://www.w3.org/1999/xlink" version="1.1"><rect x="0" y="0" width="1920" height="300" fill="#DBDFFD"></rect><path d="M0 241L320 204L640 197L960 223L1280 175L1600 204L1920 212L1920 0L1600 0L1280 0L960 0L640 0L320 0L0 0Z" fill="#9ba3eb"></path><path d="M0 146L320 132L640 180L960 165L1280 190L1600 151L1920 135L1920 0L1600 0L1280 0L960 0L640 0L320 0L0 0Z" fill="#8183f2"></path><path d="M0 119L320 109L640 81L960 113L1280 138L1600 140L1920 80L1920 0L1600 0L1280 0L960 0L640 0L320 0L0 0Z" fill="#6e60f4"></path><path d="M0 35L320 85L640 40L960 69L1280 52L1600 38L1920 61L1920 0L1600 0L1280 0L960 0L640 0L320 0L0 0Z" fill="#6433f0"></path></svg>