<svg id="visual" viewBox="0 0 1920 300" width="1920" height="300" xmlns="http://www.w3.org/2000/svg" xmlns:xlink="http://www.w3.org/1999/xlink" version="1.1"><path d="M0 72L274 145L549 98L823 96L1097 134L1371 132L1646 123L1920 113L1920 301L1646 301L1371 301L1097 301L823 301L549 301L274 301L0 301Z" fill="#dbdffd"></path><path d="M0 173L274 165L549 181L823 128L1097 137L1371 115L1646 174L1920 159L1920 301L1646 301L1371 301L1097 301L823 301L549 301L274 301L0 301Z" fill="#a9acff"></path><path d="M0 218L274 207L549 169L823 193L1097 175L1371 200L1646 177L1920 178L1920 301L1646 301L1371 301L1097 301L823 301L549 301L274 301L0 301Z" fill="#8075fd"></path><path d="M0 226L274 224L549 228L823 226L1097 257L1371 220L1646 255L1920 217L1920 301L1646 301L1371 301L1097 301L823 301L549 301L274 301L0 301Z" fill="#6433f0"></path></svg>