<svg id="visual" viewBox="0 0 1920 300" width="1920" height="300" xmlns="http://www.w3.org/2000/svg" xmlns:xlink="http://www.w3.org/1999/xlink" version="1.1"><path d="M0 40L240 76L480 52L720 76L960 67L1200 34L1440 49L1680 88L1920 79L1920 0L1680 0L1440 0L1200 0L960 0L720 0L480 0L240 0L0 0Z" fill="#7331ff"></path><path d="M0 73L240 97L480 94L720 106L960 118L1200 61L1440 88L1680 112L1920 112L1920 77L1680 86L1440 47L1200 32L960 65L720 74L480 50L240 74L0 38Z" fill="#502ac7"></path><path d="M0 130L240 118L480 130L720 130L960 160L1200 106L1440 127L1680 148L1920 148L1920 110L1680 110L1440 86L1200 59L960 116L720 104L480 92L240 95L0 71Z" fill="#322090"></path><path d="M0 205L240 226L480 241L720 205L960 253L1200 244L1440 220L1680 187L1920 217L1920 146L1680 146L1440 125L1200 104L960 158L720 128L480 128L240 116L0 128Z" fill="#1b145b"></path><path d="M0 301L240 301L480 301L720 301L960 301L1200 301L1440 301L1680 301L1920 301L1920 215L1680 185L1440 218L1200 242L960 251L720 203L480 239L240 224L0 203Z" fill="#0e002b"></path></svg>