<svg id="visual" viewBox="0 0 1920 300" width="1920" height="300" xmlns="http://www.w3.org/2000/svg" xmlns:xlink="http://www.w3.org/1999/xlink" version="1.1"><path d="M0 58L213 52L427 61L640 61L853 70L1067 64L1280 55L1493 49L1707 70L1920 64L1920 0L1707 0L1493 0L1280 0L1067 0L853 0L640 0L427 0L213 0L0 0Z" fill="#646fd4"></path><path d="M0 148L213 133L427 166L640 169L853 151L1067 151L1280 163L1493 157L1707 175L1920 169L1920 62L1707 68L1493 47L1280 53L1067 62L853 68L640 59L427 59L213 50L0 56Z" fill="#8c93e3"></path><path d="M0 256L213 259L427 259L640 256L853 250L1067 259L1280 256L1493 244L1707 256L1920 259L1920 167L1707 173L1493 155L1280 161L1067 149L853 149L640 167L427 164L213 131L0 146Z" fill="#b3b9f1"></path><path d="M0 301L213 301L427 301L640 301L853 301L1067 301L1280 301L1493 301L1707 301L1920 301L1920 257L1707 254L1493 242L1280 254L1067 257L853 248L640 254L427 257L213 257L0 254Z" fill="#dbdffd"></path></svg>