<svg id="visual" viewBox="0 0 1920 300" width="1920" height="300" xmlns="http://www.w3.org/2000/svg" xmlns:xlink="http://www.w3.org/1999/xlink" version="1.1"><path d="M0 34L384 49L768 31L1152 55L1536 64L1920 25L1920 0L1536 0L1152 0L768 0L384 0L0 0Z" fill="#0092ca"></path><path d="M0 91L384 106L768 61L1152 112L1536 127L1920 103L1920 23L1536 62L1152 53L768 29L384 47L0 32Z" fill="#2a75a1"></path><path d="M0 154L384 232L768 202L1152 175L1536 229L1920 199L1920 101L1536 125L1152 110L768 59L384 104L0 89Z" fill="#30597a"></path><path d="M0 262L384 277L768 253L1152 271L1536 271L1920 253L1920 197L1536 227L1152 173L768 200L384 230L0 152Z" fill="#2c3f54"></path><path d="M0 301L384 301L768 301L1152 301L1536 301L1920 301L1920 251L1536 269L1152 269L768 251L384 275L0 260Z" fill="#222831"></path></svg>