<svg id="visual" viewBox="0 0 1920 300" width="1920" height="300" xmlns="http://www.w3.org/2000/svg" xmlns:xlink="http://www.w3.org/1999/xlink" version="1.1"><path d="M0 81L274 104L549 134L823 126L1097 71L1371 95L1646 125L1920 65L1920 301L1646 301L1371 301L1097 301L823 301L549 301L274 301L0 301Z" fill="#2c3f54"></path><path d="M0 156L274 146L549 113L823 134L1097 139L1371 148L1646 135L1920 141L1920 301L1646 301L1371 301L1097 301L823 301L549 301L274 301L0 301Z" fill="#30597a"></path><path d="M0 213L274 183L549 213L823 187L1097 198L1371 180L1646 172L1920 207L1920 301L1646 301L1371 301L1097 301L823 301L549 301L274 301L0 301Z" fill="#2a74a2"></path><path d="M0 238L274 225L549 241L823 254L1097 242L1371 227L1646 262L1920 251L1920 301L1646 301L1371 301L1097 301L823 301L549 301L274 301L0 301Z" fill="#0092ca"></path></svg>